<?xml version="1.0" encoding="utf-8"?>
<!-- Generator: Adobe Illustrator 18.1.1, SVG Export Plug-In . SVG Version: 6.00 Build 0)  -->
<svg version="1.1" id="レイヤー_1" xmlns="http://www.w3.org/2000/svg" xmlns:xlink="http://www.w3.org/1999/xlink" x="0px"
	 y="0px" viewBox="0 0 256 256" enable-background="new 0 0 256 256" xml:space="preserve">
<g>
	<g>
		<defs>
			<rect id="SVGID_1_" width="256" height="256"/>
		</defs>
		<clipPath id="SVGID_2_">
			<use xlink:href="#SVGID_1_"  overflow="visible"/>
		</clipPath>
		<path clip-path="url(#SVGID_2_)" fill="#FFFFFF" d="M39.7,27c0,12,2.7,21.7,2.7,21.7s-16.3-1-12,15.3s12.3,22.7,21,27.3
			c6,14,11.7,28,26.7,40.3s31,19.7,31,19.7s1,8,0.3,15c-11-12.3-25-16-41.3-15.3c4-5.3,2-10.4-2-19.3c-4-8.9-5.9-15.7-12.2-19.7
			s-5.5-2-5.2,3.2s4.8,38.8,4.8,38.8l-7,0.8c0,0-1.5-35.5-1.8-38.5s-3.5-5.5-5.2,0.5s-7.8,21-8.8,27.5s1,11,3.5,14.2
			s-9.5,38.8-9.5,38.8L0,213.8V256h256v-49.5l-9.5-5.8l-97-48.8c0,0,20.8-6,30.8-15.8s22-24.5,27-39.5c12-6.5,18.2-15,22-27.2
			S219.8,0,219.8,0H40.5L39.7,27z"/>
		<path clip-path="url(#SVGID_2_)" fill="#FF9BAB" d="M18.6-8.4C9.6,31.6,30,58,30,58s2-8,7.2-8.8s6.5,0.8,6.5,0.8
			s-4.7-18.9-0.2-32.9c3,18.5,6,22,12,27.5c3.8,0.3,8.1,0.6,12.7,0.9C68,41.6,58,14.6,70.3-5.4c1.7,0.1,6.7,0,6.7,0
			s0,36.3,29.3,50.7c18.4,0.2,43.3-0.4,60-0.3c0.9,0,8.7-6,13.7-20.3c0.3,3.7-2.2,19.3-1.3,19.3c24,1.7,30,1.7,30,1.7
			s11.8-29.5,3.8-56C207.2-27.8,27.6-48.4,18.6-8.4z"/>
		<path clip-path="url(#SVGID_2_)" fill="#FF9BAB" d="M23.4-10.7C-0.4-8.9-36.8,32.4-31.2,86s49,90,52.9,114.1
			c3.1-3.8,4.9-4.9,4.9-4.9s-2.5-23.5,13.3-32.9c-9.5-3.8-7.4-15.8-7.4-15.8s-14.7-41.3-0.7-70.7c0.4-15.1-4.5-13.3-0.7-18.9
			C24.1,43.6,15,14.2,23.4-10.7z"/>
		<polygon clip-path="url(#SVGID_2_)" fill="#FF9BAB" points="45.7,284.1 31.7,290.5 47,201.5 62.2,201.5 52,263.8 		"/>
		<polygon clip-path="url(#SVGID_2_)" fill="#FF9BAB" points="235.9,296 218.5,201.5 203.3,201.5 213.9,268 222.3,272.7 
			222.3,286.7 		"/>
		<polygon clip-path="url(#SVGID_2_)" fill="#FFBFBF" points="192.5,201.5 167.3,240.4 178.3,196.8 		"/>
		<polygon clip-path="url(#SVGID_2_)" fill="#FFBFBF" points="99.1,242.5 136.9,210.9 130.6,200.4 		"/>
		<path clip-path="url(#SVGID_2_)" fill="#FFBFBF" d="M109.6,154.2c13.3,16.1,46.2,16.8,46.2,16.8v-21c0,0-15.8,6.3-23.1,8.8
			c-19.6-4.9-23.1-8.1-23.1-8.1V154.2z"/>
		<path clip-path="url(#SVGID_2_)" fill="#FF9BAB" d="M50.7-8.6C42.3,14.2,62.3,45,62.3,45l5.2-1.8c0,0-9.1-28.2,7.5-63.9
			S59.1-31.3,50.7-8.6z"/>
		<path clip-path="url(#SVGID_2_)" fill="#FF9BAB" d="M168.4-19.9c5.8,34-1.4,48.8-7,61.1c7.4,0.4,9.1,0.7,9.1,0.7
			s17.9-22.4,12.6-48.3C177.8-32.4,162.6-53.9,168.4-19.9z"/>
		<path clip-path="url(#SVGID_2_)" fill="#FF9BAB" d="M125.3-6.5c3.1,31.5,21,50.4,21,50.4h7.4c0,0,8.4-30.5-0.5-64.6
			C144.2-54.8,122.2-38,125.3-6.5z"/>
		
			<path clip-path="url(#SVGID_2_)" fill="none" stroke="#4F3423" stroke-width="3.0008" stroke-linecap="round" stroke-linejoin="round" stroke-miterlimit="10" d="
			M221.4,200.2c11-7.2,16.1-3.8,25,0.8c8.9,4.7,30.5,19.9,45.7,33.9s11,46.6,11,46.6s13.1,8.9,16.5,11.4s-11,8.9-20.8,5.1
			c4.7,9.7-3.4,21.2-15.2,15.2c-0.8,12.7-7.2,17.4-16.5,12.7c-2.1,16.5-15.2,7.6-15.2,7.6"/>
		<path clip-path="url(#SVGID_2_)" fill="#FF9BAB" d="M267.1-22.7c22.1,9.5,14.7,117.5,12.6,146.5s-23.8,72.5-48.3,98.7
			s-58.8,69.7-24.9,89.3c-44.5-32.2-11.6-78.4,11.2-104.7c11.5-70.4-0.4-94.2-7.4-114.5c16.8-9.8,19.2-25.6,17.5-38.5
			c0.1-0.1-8,1.1-7.7-1.8c1-9.1,3.3-42.4-4.7-55.7S235-20.1,235-20.1S245-32.2,267.1-22.7z"/>
		
			<path clip-path="url(#SVGID_2_)" fill="none" stroke="#4F3423" stroke-width="2.0006" stroke-linecap="round" stroke-linejoin="round" stroke-miterlimit="10" d="
			M109.2,145.6c0,0,3.2,20.7-1.3,30.5"/>
		
			<path clip-path="url(#SVGID_2_)" fill="none" stroke="#4F3423" stroke-width="2.0006" stroke-linecap="round" stroke-linejoin="round" stroke-miterlimit="10" d="
			M156.1,145.6c0,0-3.2,20.7,1.3,30.5"/>
		
			<path clip-path="url(#SVGID_2_)" fill="#FFFFFF" stroke="#4F3423" stroke-width="3.0008" stroke-linecap="round" stroke-linejoin="round" stroke-miterlimit="10" d="
			M221.1,38.8c0,0,0.1,5.7-7.6,37.8c-8.6,35.6-23.8,55.9-43.2,66.4s-38.1,16.5-38.1,16.5"/>
		
			<path clip-path="url(#SVGID_2_)" fill="#FFFFFF" stroke="#4F3423" stroke-width="3.0008" stroke-linecap="round" stroke-linejoin="round" stroke-miterlimit="10" d="
			M41.2,37.9c0,0,0.6,5.4,7,38.4s25.1,56.2,44.5,66.7s38.1,16.5,38.1,16.5"/>
		<path clip-path="url(#SVGID_2_)" fill="#FF9BAB" d="M85.1,51.6C73.7,52.5,72.6,63,72.6,75.5s6.9,25.6,22.4,19.3
			C110.4,88.4,105.1,50,85.1,51.6z"/>
		<path clip-path="url(#SVGID_2_)" fill="#FF9BAB" d="M168.1,51.6c16.7-3.2,18,19.4,16.1,28.6S174,100.5,162,94.6
			C150,88.8,151.4,54.7,168.1,51.6z"/>
		<path clip-path="url(#SVGID_2_)" fill="#4F3423" d="M157.6,57.6c11.2-5.4,29.1-2.5,34.7,7.4C193.6,48.9,168.1,38.2,157.6,57.6z"/>
		<path clip-path="url(#SVGID_2_)" fill="#4F3423" d="M107.7,57.3c-11.2-5.4-28-3.7-37.3,5.2C69.6,49.5,92,35,107.7,57.3z"/>
		<polygon clip-path="url(#SVGID_2_)" fill="#4F3423" points="185.2,53.1 193.8,50.5 189.9,56.3 		"/>
		<polygon clip-path="url(#SVGID_2_)" fill="#4F3423" points="78.2,50.8 71.6,47 74.4,54.3 		"/>
		<polygon clip-path="url(#SVGID_2_)" fill="#4F3423" points="191.2,59.2 197.8,58.4 191.7,63.1 		"/>
		<polygon clip-path="url(#SVGID_2_)" fill="#4F3423" points="74.4,56.9 66,54 71.2,60 		"/>
		
			<path clip-path="url(#SVGID_2_)" fill="none" stroke="#4F3423" stroke-width="2.0006" stroke-linecap="round" stroke-linejoin="round" stroke-miterlimit="10" d="
			M43.5,50c-9.5-5.4-16.9,4.8-11.2,20.9s19.4,20.8,19.4,20.8"/>
		
			<path clip-path="url(#SVGID_2_)" fill="none" stroke="#4F3423" stroke-width="2.0006" stroke-linecap="round" stroke-linejoin="round" stroke-miterlimit="10" d="
			M218.5,54.1c7.9-5.1,12.7,3.8,9.5,17.5C224.9,85.2,208.4,96,208.4,96"/>
		
			<path clip-path="url(#SVGID_2_)" fill="none" stroke="#4F3423" stroke-width="2.0006" stroke-linecap="round" stroke-linejoin="round" stroke-miterlimit="10" d="
			M83.8-47.6C63.5-11.4,82.2,35,106.7,45.2"/>
		
			<path clip-path="url(#SVGID_2_)" fill="none" stroke="#4F3423" stroke-width="1.0003" stroke-linecap="round" stroke-linejoin="round" stroke-miterlimit="10" d="
			M83.8-20.9C79.4,11.8,96.7,37.3,111,44.6"/>
		
			<path clip-path="url(#SVGID_2_)" fill="none" stroke="#4F3423" stroke-width="2.0006" stroke-linecap="round" stroke-linejoin="round" stroke-miterlimit="10" d="
			M104.1-51.4c-7.3,40.4-7.9,75.3,22.9,94"/>
		
			<path clip-path="url(#SVGID_2_)" fill="none" stroke="#4F3423" stroke-width="1.0003" stroke-linecap="round" stroke-linejoin="round" stroke-miterlimit="10" d="
			M111.8-37.4c-8.6,41.9,8.3,75.2,19.1,82.9"/>
		
			<path clip-path="url(#SVGID_2_)" fill="none" stroke="#4F3423" stroke-width="1.0003" stroke-linecap="round" stroke-linejoin="round" stroke-miterlimit="10" d="
			M114.3-31.1c-3.5,31.1,6.3,62,16.5,73.7"/>
		
			<path clip-path="url(#SVGID_2_)" fill="none" stroke="#4F3423" stroke-width="1.0003" stroke-linecap="round" stroke-linejoin="round" stroke-miterlimit="10" d="
			M143.5-53.9C160.7-4,159.4,25.7,154,42.9"/>
		
			<path clip-path="url(#SVGID_2_)" fill="none" stroke="#4F3423" stroke-width="1.0003" stroke-linecap="round" stroke-linejoin="round" stroke-miterlimit="10" d="
			M163.9-45c13,41,3.8,72.1-2.2,85.1"/>
		
			<path clip-path="url(#SVGID_2_)" fill="none" stroke="#4F3423" stroke-width="1.0003" stroke-linecap="round" stroke-linejoin="round" stroke-miterlimit="10" d="
			M185.5-37.4c22.9,45.1-2.5,78.8-2.5,78.8"/>
		
			<path clip-path="url(#SVGID_2_)" fill="none" stroke="#4F3423" stroke-width="1.0003" stroke-linecap="round" stroke-linejoin="round" stroke-miterlimit="10" d="
			M191.8-23.4c11.1,26.7,16.7,43.9,12.5,69"/>
		
			<path clip-path="url(#SVGID_2_)" fill="none" stroke="#4F3423" stroke-width="1.0003" stroke-linecap="round" stroke-linejoin="round" stroke-miterlimit="10" d="
			M199-50.1c22.9,39.4,17.6,79.2,8.7,97"/>
		
			<path clip-path="url(#SVGID_2_)" fill="none" stroke="#4F3423" stroke-width="1.0003" stroke-linecap="round" stroke-linejoin="round" stroke-miterlimit="10" d="
			M74.9-19.6c-17.5,25.7-7,63.9-7,63.9"/>
		
			<path clip-path="url(#SVGID_2_)" fill="none" stroke="#4F3423" stroke-width="2.0006" stroke-linecap="round" stroke-linejoin="round" stroke-miterlimit="10" d="
			M63.5-48.8c-25.4,36.2-28,75.9-5.1,95.3"/>
		
			<path clip-path="url(#SVGID_2_)" fill="none" stroke="#4F3423" stroke-width="1.0003" stroke-linecap="round" stroke-linejoin="round" stroke-miterlimit="10" d="
			M76.2-28.5C55.5-5.3,56.8,27.7,64.8,45.2"/>
		
			<path clip-path="url(#SVGID_2_)" fill="#FFFFFF" stroke="#4F3423" stroke-width="2.0006" stroke-linecap="round" stroke-linejoin="round" stroke-miterlimit="10" d="
			M43.1,14.7c-3.5,14.6-1.3,30.5-1.3,30.5"/>
		
			<path clip-path="url(#SVGID_2_)" fill="none" stroke="#4F3423" stroke-width="2.0006" stroke-linecap="round" stroke-linejoin="round" stroke-miterlimit="10" d="
			M213-11.5c10.2,27.6,7.6,59.7,7.6,59.7"/>
		
			<path clip-path="url(#SVGID_2_)" fill="none" stroke="#4F3423" stroke-width="1.0003" stroke-linecap="round" stroke-linejoin="round" stroke-miterlimit="10" d="
			M228.7,71.9c15.9,50.8,18.1,94.1-16.5,141.1"/>
		
			<path clip-path="url(#SVGID_2_)" fill="none" stroke="#4F3423" stroke-width="2.0006" stroke-linecap="round" stroke-linejoin="round" stroke-miterlimit="10" d="
			M213.4,92.2c11.8,36.5,21.3,89.3,0,119.5"/>
		
			<path clip-path="url(#SVGID_2_)" fill="none" stroke="#4F3423" stroke-width="1.0003" stroke-linecap="round" stroke-linejoin="round" stroke-miterlimit="10" d="
			M217.3,89.7c16.2,39.7,14.9,71.2,11.4,94.4"/>
		
			<line clip-path="url(#SVGID_2_)" fill="none" stroke="#4F3423" stroke-width="2.0006" stroke-linecap="round" stroke-linejoin="round" stroke-miterlimit="10" x1="87.6" y1="195.2" x2="62.2" y2="204.1"/>
		
			<line clip-path="url(#SVGID_2_)" fill="none" stroke="#4F3423" stroke-width="2.0006" stroke-linecap="round" stroke-linejoin="round" stroke-miterlimit="10" x1="177.9" y1="195.2" x2="203.3" y2="204.1"/>
		
			<path clip-path="url(#SVGID_2_)" fill="none" stroke="#4F3423" stroke-width="3.0008" stroke-linecap="round" stroke-linejoin="round" stroke-miterlimit="10" d="
			M44.4,200.2c-11-7.2-16.1-3.8-25,0.8c-8.9,4.7-30.5,19.9-45.8,33.9c-15.2,14-11,46.6-11,46.6s-13.1,8.9-16.5,11.4
			c-3.4,2.5,11,8.9,20.8,5.1c-4.7,9.7,3.4,21.2,15.3,15.2c0.8,12.7,7.2,17.4,16.5,12.7c2.1,16.5,15.2,7.6,15.2,7.6"/>
		
			<path clip-path="url(#SVGID_2_)" fill="#FFFFFF" stroke="#4F3423" stroke-width="3.0008" stroke-linecap="round" stroke-linejoin="round" stroke-miterlimit="10" d="
			M42.7,160.2c-16.4,6.6-17.9,30.5-12.9,41.3c4.9,10.8,9.9,13.9,15.5,17.1c5.6,3.2,15.5,2.9,22.6-1.6s11.6-13,15.5-21.1"/>
		
			<path clip-path="url(#SVGID_2_)" fill="#FFFFFF" stroke="#4F3423" stroke-width="2.0006" stroke-linecap="round" stroke-linejoin="round" stroke-miterlimit="10" d="
			M86.4,186.8c-6,6-9.7,20.5-9.4,27.3c0.3,6.8,6,3.9,9.2-1c3.1-5,4.5-8.4,4.5-8.4"/>
		
			<path clip-path="url(#SVGID_2_)" fill="none" stroke="#4F3423" stroke-width="2.0006" stroke-linecap="round" stroke-linejoin="round" stroke-miterlimit="10" d="
			M46.5,156.3c0,0-2.4-36.4-2.1-41s-4.5-3.5-7,6.7s-14.4,34,1.8,39.6"/>
		
			<path clip-path="url(#SVGID_2_)" fill="none" stroke="#4F3423" stroke-width="2.0006" stroke-linecap="round" stroke-linejoin="round" stroke-miterlimit="10" d="
			M53.9,154.2c0,0-4.5-35-5.2-39.9s2.1-6.6,7.3,0c5.3,6.7,14.4,25.5,14,31.2c-0.3,5.6-4.6,10.9-4.6,10.9"/>
		
			<path clip-path="url(#SVGID_2_)" fill="#FFFFFF" stroke="#4F3423" stroke-width="2.0006" stroke-linecap="round" stroke-linejoin="round" stroke-miterlimit="10" d="
			M28.7,200.4c-8.1,12.3-4.7,22.8,0,22.1c4.7-0.8,7.3-9.5,7.3-9.5"/>
		
			<path clip-path="url(#SVGID_2_)" fill="#FFFFFF" stroke="#4F3423" stroke-width="2.0006" stroke-linecap="round" stroke-linejoin="round" stroke-miterlimit="10" d="
			M102.5,171.4l28.4,22.5l31.8-22.9l15.2,24.2c0,0-10.6,45.3-11.1,49.6c-0.4,4.2-3.8,2.1-5.1-1.3s-30.9-43.2-30.9-43.2
			s-30.2,40.7-32.3,44.5c-2.1,3.8-3.8,1.3-5.1-1.3C92.2,240.9,88,193,88,193L102.5,171.4z"/>
		
			<path clip-path="url(#SVGID_2_)" fill="#FFFFFF" stroke="#4F3423" stroke-width="3.0008" stroke-linecap="round" stroke-linejoin="round" stroke-miterlimit="10" d="
			M69.6,151.1c17.7,0,36.8,9.4,40.4,17.3"/>
		<path clip-path="url(#SVGID_2_)" fill="#FF9BAB" d="M67.6,184.2c-5.2-1.3-4.8,11.7-1.1,11.6C70.1,195.5,72.8,185.5,67.6,184.2z"/>
		<path clip-path="url(#SVGID_2_)" fill="#FF9BAB" d="M36,189.1c-2.6,2.1,1.8,10.2,3.3,10.7C40.9,200.3,38.7,187,36,189.1z"/>
		
			<path clip-path="url(#SVGID_2_)" fill="none" stroke="#4F3423" stroke-width="1.0003" stroke-linecap="round" stroke-linejoin="round" stroke-miterlimit="10" d="
			M50.7,111.2c0.2,13.6,7.5,36.8,10.5,41"/>
		
			<path clip-path="url(#SVGID_2_)" fill="none" stroke="#4F3423" stroke-width="1.0003" stroke-linecap="round" stroke-linejoin="round" stroke-miterlimit="10" d="
			M38.1,121.7c0.7,15.2,0,34.7,0,34.7"/>
		
			<path clip-path="url(#SVGID_2_)" fill="none" stroke="#4F3423" stroke-width="2.0006" stroke-linecap="round" stroke-linejoin="round" stroke-miterlimit="10" d="
			M31.8,73.7c-14.2,35.7-1,70.5-1,70.5"/>
		
			<path clip-path="url(#SVGID_2_)" fill="none" stroke="#4F3423" stroke-width="1.0003" stroke-linecap="round" stroke-linejoin="round" stroke-miterlimit="10" d="
			M18.5,13.5C-39.2,55-7.6,118.5,1.9,144.8c9.5,26.2,21,49.9,19.4,55.7"/>
		
			<path clip-path="url(#SVGID_2_)" fill="none" stroke="#4F3423" stroke-width="1.0003" stroke-linecap="round" stroke-linejoin="round" stroke-miterlimit="10" d="
			M75.9,56.6c-8.4,12.6-1,30.5,1.4,33.6"/>
		
			<path clip-path="url(#SVGID_2_)" fill="none" stroke="#4F3423" stroke-width="1.0003" stroke-linecap="round" stroke-linejoin="round" stroke-miterlimit="10" d="
			M181,56.6c8.4,12.6,1.1,30.5-1.4,33.6"/>
		
			<path clip-path="url(#SVGID_2_)" fill="none" stroke="#4F3423" stroke-width="1.0003" stroke-linecap="round" stroke-linejoin="round" stroke-miterlimit="10" d="
			M91,52.4c10.9,5.6,14.7,25.2,10.2,34.7c-4.6,9.4-10.5,8.4-10.5,8.4"/>
		
			<path clip-path="url(#SVGID_2_)" fill="none" stroke="#4F3423" stroke-width="1.0003" stroke-linecap="round" stroke-linejoin="round" stroke-miterlimit="10" d="
			M166,52.4C155.1,58,151.3,77.6,155.8,87s10.5,8.4,10.5,8.4"/>
		
			<line clip-path="url(#SVGID_2_)" fill="none" stroke="#4F3423" stroke-width="1.0003" stroke-linecap="round" stroke-linejoin="round" stroke-miterlimit="10" x1="79.1" y1="92.3" x2="81.2" y2="94.4"/>
		
			<line clip-path="url(#SVGID_2_)" fill="none" stroke="#4F3423" stroke-width="1.0003" stroke-linecap="round" stroke-linejoin="round" stroke-miterlimit="10" x1="177.9" y1="92.3" x2="175.8" y2="94.4"/>
		
			<line clip-path="url(#SVGID_2_)" fill="none" stroke="#4F3423" stroke-width="1.0003" stroke-linecap="round" stroke-linejoin="round" stroke-miterlimit="10" x1="83.3" y1="95.4" x2="86.4" y2="96.5"/>
		
			<line clip-path="url(#SVGID_2_)" fill="none" stroke="#4F3423" stroke-width="1.0003" stroke-linecap="round" stroke-linejoin="round" stroke-miterlimit="10" x1="173.7" y1="95.4" x2="170.5" y2="96.5"/>
		
			<polyline clip-path="url(#SVGID_2_)" fill="none" stroke="#4F3423" stroke-width="2.0006" stroke-linecap="round" stroke-linejoin="round" stroke-miterlimit="10" points="
			123.2,137.4 128.5,139.5 133.7,137.4 		"/>
		
			<path clip-path="url(#SVGID_2_)" fill="none" stroke="#4F3423" stroke-width="2.0006" stroke-linecap="round" stroke-linejoin="round" stroke-miterlimit="10" d="
			M233.5,42.9c4.7-12.1,7.3-38.9,0-64.1C265.6-29.8,283,7,288.1,63.2s-28.3,128.1-56.9,157.4c-28.6,29.2-48.6,68.6-30.5,87.7"/>
		
			<path clip-path="url(#SVGID_2_)" fill="none" stroke="#4F3423" stroke-width="2.0006" stroke-linecap="round" stroke-linejoin="round" stroke-miterlimit="10" d="
			M22.4,28.2c0,0-5.2-18.9,4.7-52c-25.7-8.3-66.7,21-61.5,94.4c4,56.9,38.6,95,43.2,101.7c4.6,6.6,11.4,20.8,11.4,20.8"/>
		
			<polygon clip-path="url(#SVGID_2_)" fill="#FFFFFF" stroke="#4F3423" stroke-width="3.0008" stroke-linecap="round" stroke-linejoin="round" stroke-miterlimit="10" points="
			127.7,140.7 247.3,181.5 222.7,255.8 102.9,214.1 		"/>
		<path clip-path="url(#SVGID_2_)" fill="#FF9BAB" d="M137,191.2c1.3-1.4,3.5-2.6,6.8-3.6c2.8-0.9,4.7-1.5,5.6-2
			c1.4-0.8,2.3-1.8,2.7-3.1c0.4-1.1,0.4-2,0-2.9s-1.1-1.5-2.2-1.9c-1.5-0.5-2.7-0.3-3.6,0.6c-0.5,0.5-1.1,1.5-1.6,2.9l-4.8-1.6
			c0.8-2.1,1.8-3.7,2.9-4.8c2.2-2.1,4.9-2.5,8.3-1.4c2.7,0.9,4.5,2.3,5.6,4.3s1.2,4.2,0.4,6.6c-0.6,1.9-1.7,3.3-3.3,4.4
			c-1,0.7-2.6,1.4-4.7,2l-2.4,0.7c-1.5,0.5-2.6,0.8-3.2,1c-0.6,0.2-1.1,0.6-1.6,1l10.9,3.7l-1.5,4.3l-17.1-5.8
			C134.9,194,135.8,192.5,137,191.2z"/>
		<path clip-path="url(#SVGID_2_)" fill="#FF9BAB" d="M176.6,185.6c0.5,2.7,0.1,6.1-1.3,10.2c-1.4,4.1-3.1,7.1-5.1,8.9
			c-2,1.8-4.6,2.2-7.8,1.1c-3.2-1.1-5.1-2.9-5.6-5.6c-0.5-2.7-0.1-6.1,1.3-10.2c1.4-4.1,3.1-7.1,5.1-8.9c2-1.8,4.6-2.2,7.8-1.1
			C174.2,181.1,176,183,176.6,185.6z M161.5,198.6c0,1.7,0.7,2.8,2.1,3.3c1.5,0.5,2.7,0,3.6-1.3c1-1.4,1.9-3.5,2.9-6.4
			c1-3,1.5-5.3,1.6-6.9c0-1.6-0.7-2.7-2.1-3.1c-1.5-0.5-2.7-0.1-3.6,1.2c-1,1.3-1.9,3.4-3,6.5C162.1,194.6,161.6,196.9,161.5,198.6z
			"/>
		<path clip-path="url(#SVGID_2_)" fill="#FF9BAB" d="M180.7,192.1l1.1-3.4c1.6,0.5,2.7,0.7,3.4,0.8c1.1,0.1,2-0.1,2.9-0.5
			c0.6-0.3,1.1-0.8,1.6-1.5c0.3-0.4,0.5-0.7,0.5-0.9l4.1,1.4l-8.4,25l-5-1.7l5.8-17.3L180.7,192.1z"/>
		<path clip-path="url(#SVGID_2_)" fill="#FF9BAB" d="M211.4,200.8c0.1-0.4,0.1-0.9,0-1.5c-0.3-1-0.9-1.6-2-2c-1.6-0.5-3,0-4.3,1.5
			c-0.7,0.9-1.4,2.2-2.2,4.1c0.9-0.5,1.7-0.8,2.7-0.9c0.9-0.1,1.9,0.1,2.9,0.4c2.2,0.7,3.8,2.1,4.7,4.1s1,4.2,0.2,6.5
			s-2.2,4.2-4.2,5.5s-4.5,1.5-7.4,0.5c-3.2-1.1-5-3.2-5.7-6.3c-0.5-2.5-0.2-5.3,0.9-8.6c0.6-1.9,1.2-3.4,1.8-4.6
			c1-2,2.2-3.6,3.5-4.8c1.1-1,2.4-1.6,3.8-2s2.9-0.3,4.5,0.3c2.3,0.8,4,2,5,3.7s1.2,3.5,0.7,5.5L211.4,200.8z M200.8,212.9
			c0.4,1.1,1.2,1.8,2.3,2.2s2.1,0.2,3-0.4c0.9-0.6,1.6-1.6,2-2.9c0.5-1.5,0.5-2.7,0.1-3.7c-0.5-1-1.2-1.7-2.2-2
			c-0.8-0.3-1.7-0.3-2.5,0c-1.2,0.4-2.1,1.5-2.7,3.1C200.4,210.6,200.4,211.8,200.8,212.9z"/>
	</g>
</g>
</svg>
